<svg width="38" height="38" viewBox="0 0 38 38" fill="none" xmlns="http://www.w3.org/2000/svg">
<path fill-rule="evenodd" clip-rule="evenodd" d="M0.770508 19C0.770508 8.93231 8.93198 0.770836 18.9997 0.770836C29.0674 0.770836 37.2288 8.93231 37.2288 19C37.2288 29.0677 29.0674 37.2292 18.9997 37.2292C8.93198 37.2292 0.770508 29.0677 0.770508 19ZM21.083 10.6667C21.083 11.8173 20.1503 12.75 18.9997 12.75C17.8491 12.75 16.9163 11.8173 16.9163 10.6667C16.9163 9.51608 17.8491 8.58334 18.9997 8.58334C20.1503 8.58334 21.083 9.51608 21.083 10.6667ZM18.9997 16.3958C19.8626 16.3958 20.5622 17.0954 20.5622 17.9583V28.375C20.5622 29.2379 19.8626 29.9375 18.9997 29.9375C18.1367 29.9375 17.4372 29.238 17.4372 28.375V17.9583C17.4372 17.0954 18.1367 16.3958 18.9997 16.3958Z" fill="#1450D0"/>
</svg>
