<svg width="33" height="31" viewBox="0 0 33 31" fill="none" xmlns="http://www.w3.org/2000/svg">
<g clip-path="url(#clip0_6766_14888)">
<rect width="33" height="31" fill="white"/>
<path d="M15.6195 12.3767C16.1115 10.6651 15.0218 8.83647 13.1855 8.29237C11.3493 7.74827 9.46194 8.6947 8.96994 10.4063C8.47795 12.1179 9.56764 13.9465 11.4039 14.4906C13.2401 15.0347 15.1275 14.0882 15.6195 12.3767Z" fill="#1450D0"/>
<path fill-rule="evenodd" clip-rule="evenodd" d="M31.042 17.1315C30.0705 16.4927 28.9479 16.2923 27.927 16.4833C26.4497 16.762 24.7473 17.1127 23.4458 16.2578L23.2176 16.1075C21.7557 15.1462 21.3856 13.2205 21.7989 11.6172C22.1443 10.2801 22.1659 8.82409 21.802 7.34924C20.6084 2.49884 15.7016 -0.726417 10.841 0.140957C5.98357 1.00833 3.01048 5.64267 4.20403 10.4899C4.56179 11.946 5.25572 13.2549 6.18403 14.354C7.30357 15.6785 7.85871 17.5542 6.97974 18.9257L6.80703 19.195C6.0545 20.3661 4.45076 20.6605 3.04749 20.9297C2.05749 21.1176 1.16002 21.6781 0.589455 22.5706C-0.573255 24.3836 0.040483 26.873 1.9588 28.1349C3.87712 29.3968 6.37525 28.949 7.53796 27.1391C8.12703 26.2217 8.25964 25.1257 7.99749 24.108C7.61815 22.6332 7.15245 20.9329 7.94198 19.7023L8.44777 18.9132C9.1602 17.8016 10.582 17.4509 11.9482 17.6951C13.4286 17.9581 14.9059 18.9069 15.2637 20.3505L15.3901 20.864C15.7355 22.2606 14.8967 23.5945 14.1688 24.7687C13.6538 25.6017 13.4687 26.6413 13.7309 27.709C14.2644 29.8822 16.4665 31.3288 18.6438 30.9406C20.8212 30.5523 22.1536 28.4762 21.62 26.3031C21.3486 25.1977 20.6454 24.2803 19.7325 23.6978C18.4095 22.8524 16.8612 21.8942 16.4973 20.4099L16.4048 20.0373C16.0624 18.6439 16.9229 17.3193 18.1103 16.5991C19.2052 15.9353 20.6238 15.785 21.7557 16.5303L23.0017 17.3507C24.2415 18.1679 24.6455 19.768 25.0095 21.1709C25.2654 22.1604 25.8946 23.0778 26.8383 23.701C28.7567 24.9629 31.2548 24.5182 32.4175 22.7052C33.5802 20.8922 32.9665 18.4028 31.0481 17.1409L31.042 17.1315ZM13.37 15.7537C10.875 16.1983 8.37375 14.6076 7.77852 12.1996C7.18637 9.79166 8.72843 7.47762 11.2204 7.03298C13.7154 6.58833 16.2167 8.17904 16.8119 10.587C17.404 12.995 15.862 15.309 13.37 15.7537Z" fill="#1450D0"/>
</g>
<defs>
<clipPath id="clip0_6766_14888">
<rect width="33" height="31" fill="white"/>
</clipPath>
</defs>
</svg>
